<?xml version="1.0" encoding="UTF-8" standalone="no"?>
<svg
   xmlns:dc="http://purl.org/dc/elements/1.1/"
   xmlns:cc="http://creativecommons.org/ns#"
   xmlns:rdf="http://www.w3.org/1999/02/22-rdf-syntax-ns#"
   xmlns:svg="http://www.w3.org/2000/svg"
   xmlns="http://www.w3.org/2000/svg"
   xmlns:xlink="http://www.w3.org/1999/xlink"
   xmlns:sodipodi="http://sodipodi.sourceforge.net/DTD/sodipodi-0.dtd"
   xmlns:inkscape="http://www.inkscape.org/namespaces/inkscape"
   id="svg3104"
   version="1.1"
   viewBox="0 0 264.58336 127.16659"
   height="480.62967"
   width="1000"
   inkscape:version="1.0.2 (e86c870879, 2021-01-15)"
   sodipodi:docname="RTM 2021.svg">
  <sodipodi:namedview
     pagecolor="#ffffff"
     bordercolor="#666666"
     borderopacity="1"
     objecttolerance="10"
     gridtolerance="10"
     guidetolerance="10"
     inkscape:pageopacity="0"
     inkscape:pageshadow="2"
     inkscape:window-width="1366"
     inkscape:window-height="705"
     id="namedview4169"
     showgrid="false"
     units="px"
     inkscape:zoom="0.70710678"
     inkscape:cx="478.50501"
     inkscape:cy="141.72228"
     inkscape:window-x="-8"
     inkscape:window-y="-8"
     inkscape:window-maximized="1"
     inkscape:current-layer="svg3104"
     inkscape:document-rotation="0"
     showguides="false" />
  <defs
     id="defs3098">
    <marker
       style="overflow:visible"
       id="Arrow1Lstart"
       refX="0"
       refY="0"
       orient="auto"
       inkscape:stockid="Arrow1Lstart"
       inkscape:isstock="true">
      <path
         transform="matrix(0.8,0,0,0.8,10,0)"
         style="fill-rule:evenodd;stroke:#000000;stroke-width:1pt"
         d="M 0,0 5,-5 -12.5,0 5,5 Z"
         id="path968" />
    </marker>
    <linearGradient
       inkscape:collect="always"
       id="linearGradient933">
      <stop
         style="stop-color:#2c2c81;stop-opacity:1;"
         offset="0"
         id="stop929" />
      <stop
         style="stop-color:#ee5325;stop-opacity:1"
         offset="1"
         id="stop931" />
    </linearGradient>
    <linearGradient
       inkscape:collect="always"
       id="linearGradient916">
      <stop
         style="stop-color:#ffffff;stop-opacity:1"
         offset="0"
         id="stop912" />
      <stop
         style="stop-color:#ffff00;stop-opacity:1"
         offset="0.19998325"
         id="stop924" />
      <stop
         style="stop-color:#ffbd0a;stop-opacity:1"
         offset="0.50246811"
         id="stop922" />
      <stop
         style="stop-color:#ef4d1d;stop-opacity:1"
         offset="1"
         id="stop914" />
    </linearGradient>
    <style
       type="text/css"
       id="style3189">
   
    .fil1 {fill:black}
    .fil0 {fill:#2049A3}
    .fil2 {fill:white}
   
  </style>
    <radialGradient
       inkscape:collect="always"
       xlink:href="#linearGradient916"
       id="radialGradient920"
       cx="163.54399"
       cy="9.9060116"
       fx="163.54399"
       fy="9.9060116"
       r="9.7375402"
       gradientUnits="userSpaceOnUse"
       gradientTransform="matrix(0.96084791,-9.7604541e-4,0.00105183,1.0353191,6.0624217,-0.23789604)" />
    <linearGradient
       inkscape:collect="always"
       xlink:href="#linearGradient933"
       id="linearGradient937"
       x1="55.378246"
       y1="53.881538"
       x2="108.13725"
       y2="34.424313"
       gradientUnits="userSpaceOnUse" />
  </defs>
  <metadata
     id="metadata3101">
    <rdf:RDF>
      <cc:Work
         rdf:about="">
        <dc:format>image/svg+xml</dc:format>
        <dc:type
           rdf:resource="http://purl.org/dc/dcmitype/StillImage" />
        <dc:title />
      </cc:Work>
    </rdf:RDF>
  </metadata>
  <g
     id="g1336"
     transform="scale(1.0069941)">
    <path
       id="path1289"
       style="color:#000000;font-style:normal;font-variant:normal;font-weight:normal;font-stretch:normal;font-size:medium;line-height:normal;font-family:sans-serif;font-variant-ligatures:normal;font-variant-position:normal;font-variant-caps:normal;font-variant-numeric:normal;font-variant-alternates:normal;font-variant-east-asian:normal;font-feature-settings:normal;font-variation-settings:normal;text-indent:0;text-align:start;text-decoration:none;text-decoration-line:none;text-decoration-style:solid;text-decoration-color:#000000;letter-spacing:normal;word-spacing:normal;text-transform:none;writing-mode:lr-tb;direction:ltr;text-orientation:mixed;dominant-baseline:auto;baseline-shift:baseline;text-anchor:start;white-space:normal;shape-padding:0;shape-margin:0;inline-size:0;clip-rule:nonzero;display:inline;overflow:visible;visibility:visible;isolation:auto;mix-blend-mode:normal;color-interpolation:sRGB;color-interpolation-filters:linearRGB;solid-color:#000000;solid-opacity:1;vector-effect:none;fill:#ffffff;fill-opacity:1;fill-rule:nonzero;stroke:none;stroke-width:5.73617;stroke-linecap:square;stroke-linejoin:round;stroke-miterlimit:4;stroke-dasharray:none;stroke-dashoffset:0;stroke-opacity:1;paint-order:stroke markers fill;color-rendering:auto;image-rendering:auto;shape-rendering:auto;text-rendering:auto;enable-background:accumulate;stop-color:#000000"
       d="m 159.84274,0 c -4.42507,0 -8.32423,2.3893503 -10.47223,5.9396893 a 2.8683702,2.8683702 0 0 0 -1.39371,-0.3488158 2.8683702,2.8683702 0 0 0 -0.52865,0.053743 c -2.62832,0.5153181 -5.27481,1.0687154 -7.93854,1.6639813 C 103.63383,15.325789 68.008014,30.259371 45.447652,46.820917 a 2.8683702,2.8683702 0 0 0 -0.377238,-0.565859 c 0,0 -4.751887,-5.50204 -13.311849,-6.839376 -7.808157,-1.219875 -13.577983,-1.102773 -13.577983,-1.102773 a 2.8683702,2.8683702 0 0 0 -2.699577,2.084626 L 0.10881673,94.568391 A 2.8683702,2.8683702 0 0 0 2.8678216,98.219329 H 29.485836 a 2.8683702,2.8683702 0 0 0 2.759004,-2.085144 l 4.055049,-14.288532 c 0.117568,-0.414261 0.89884,-1.880958 2.352313,-3.63492 1.453473,-1.753963 3.539368,-3.894469 6.167583,-6.266802 4.540893,-4.098798 10.705735,-8.901129 18.148763,-13.885458 -0.516022,1.953945 -1.262536,4.750387 -2.362131,8.717298 H 56.08318 a 2.8683718,2.8683718 0 0 0 -2.044838,0.857311 l -8.447545,8.588108 a 2.8683718,2.8683718 0 0 0 2.044835,4.880838 h 8.803082 c -3.537292,11.474358 -6.930081,21.912602 -3.648874,30.616742 1.844791,4.89371 5.418301,8.7062 10.226767,11.09958 4.808464,2.39337 10.793397,3.47757 17.871261,3.4649 14.211409,-0.0255 21.362972,-5.33681 27.952822,-11.06444 7.24841,-6.30007 11.56673,-16.169557 11.56673,-16.169557 a 2.8683718,2.8683718 0 0 0 0.23409,-0.83044 h 14.20327 a 2.8683718,2.8683718 0 0 0 2.75797,-2.083594 l 9.56221,-33.69355 c 1.02246,-0.905833 2.27154,-1.979436 3.67988,-2.871142 1.62669,-1.029952 3.32395,-1.668394 4.2168,-1.685687 1.09946,-0.0213 1.89865,0.08678 2.29288,0.212907 0.39423,0.12613 0.3427,0.137684 0.38861,0.212908 0.0918,0.150447 0.43189,1.837124 -0.57981,5.470983 -2.16507,7.776604 -8.75192,30.779001 -8.75192,30.779001 a 2.8683718,2.8683718 0 0 0 2.75745,3.658174 h 26.61905 a 2.8683718,2.8683718 0 0 0 2.7621,-2.097545 c 0,0 5.89871,-21.14308 9.37308,-33.25792 1.32326,-1.169611 2.79768,-2.419535 4.23229,-3.353284 1.633,-1.062868 3.21229,-1.615988 3.68918,-1.625224 1.09946,-0.0213 1.90073,0.08678 2.29496,0.212907 0.39424,0.12613 0.34268,0.137684 0.3886,0.212908 0.0918,0.150447 0.43188,1.837124 -0.57981,5.470983 -2.16507,7.776604 -8.75192,30.779001 -8.75192,30.779001 a 2.8683718,2.8683718 0 0 0 2.75797,3.658174 h 26.61698 a 2.8683718,2.8683718 0 0 0 2.76366,-2.101165 c 0,0 5.8876,-21.252778 9.19531,-32.689478 1.82136,-6.297525 1.5385,-12.499435 -1.46865,-17.300752 -3.00715,-4.801317 -8.70828,-7.746881 -16.13493,-7.814509 -10.37891,-0.09452 -20.35333,4.610378 -25.69352,7.521504 -3.21783,-4.857734 -9.48426,-7.447148 -17.08785,-7.521504 -10.6315,-0.103971 -19.93931,4.338484 -23.60735,6.341732 -1.84026,-1.662652 -5.20971,-4.267965 -11.42152,-5.238441 -7.80819,-1.219874 -13.57643,-1.103291 -13.57643,-1.103291 a 2.8683718,2.8683718 0 0 0 -2.70113,2.083594 l -7.64036,26.926522 a 2.8683718,2.8683718 0 0 0 -1.68414,-0.547254 H 93.297962 c 3.5195,-12.602842 6.919988,-24.81244 6.919988,-24.81244 a 2.8683718,2.8683718 0 0 0 -1.808154,-3.473172 c 11.837164,-5.321808 24.817744,-10.037112 38.457084,-13.407452 4.46765,-1.103975 8.91851,-2.086252 13.33045,-2.954858 a 2.8683702,2.8683702 0 0 0 1.4919,-0.804602 c 2.16873,1.948565 5.02973,3.13986 8.15351,3.13986 4.48073,0 8.421,-2.449902 10.55181,-6.073531 a 2.8683702,2.8683702 0 0 0 1.66967,0.313676 c 20.2539,-2.347152 38.67679,-2.139178 52.54201,0.125573 6.93261,1.132376 12.72338,2.787658 16.96692,4.79609 4.24355,2.008433 6.81995,4.346725 7.83984,6.533451 3.34975,7.18221 2.87369,13.368544 0.4656,19.669086 -2.40809,6.300539 -6.91542,12.550645 -11.52746,18.828308 a 2.8683702,2.8683702 0 0 0 4.06642,3.966681 c 7.07368,-5.472422 12.52909,-13.121113 16.02228,-21.029205 3.49318,-7.908105 5.08152,-16.070686 3.93981,-22.923667 C 260.7698,19.006765 252.76223,11.85658 241.26878,7.2972291 229.77533,2.7378787 214.49184,0.48275974 196.80689,0.50126142 188.24821,0.51021463 179.12746,1.0614675 169.61475,2.16886 a 2.8683702,2.8683702 0 0 0 -1.74046,0.8655802 C 165.72023,1.1491902 162.90859,0 159.84274,0 Z m -48.51797,73.927271 -5.85701,20.64112 a 2.8683718,2.8683718 0 0 0 -0.0553,1.332217 2.8683718,2.8683718 0 0 0 -0.35088,0.458888 c 0,0 -2.14612,3.461943 -5.642554,6.941694 -3.496439,3.47975 -8.184375,6.66078 -12.783198,6.68952 -2.141133,0.0134 -2.401213,-0.31549 -2.847888,-1.24231 -0.446675,-0.92681 -0.662255,-3.10993 -0.248047,-6.0725 0.76204,-5.450375 3.308035,-13.327884 5.716964,-21.573872 h 13.810523 a 2.8683718,2.8683718 0 0 0 2.04484,-0.85783 z" />
    <g
       id="g1326"
       transform="translate(-0.50096519,-0.87281496)">
      <path
         style="color:#000000;font-style:normal;font-variant:normal;font-weight:normal;font-stretch:normal;font-size:medium;line-height:normal;font-family:sans-serif;font-variant-ligatures:normal;font-variant-position:normal;font-variant-caps:normal;font-variant-numeric:normal;font-variant-alternates:normal;font-variant-east-asian:normal;font-feature-settings:normal;font-variation-settings:normal;text-indent:0;text-align:start;text-decoration:none;text-decoration-line:none;text-decoration-style:solid;text-decoration-color:#000000;letter-spacing:normal;word-spacing:normal;text-transform:none;writing-mode:lr-tb;direction:ltr;text-orientation:mixed;dominant-baseline:auto;baseline-shift:baseline;text-anchor:start;white-space:normal;shape-padding:0;shape-margin:0;inline-size:0;clip-rule:nonzero;display:inline;overflow:visible;visibility:visible;isolation:auto;mix-blend-mode:normal;color-interpolation:sRGB;color-interpolation-filters:linearRGB;solid-color:#000000;solid-opacity:1;vector-effect:none;fill:#2c2c81;fill-opacity:1;fill-rule:nonzero;stroke:none;stroke-width:5.73617;stroke-linecap:square;stroke-linejoin:round;stroke-miterlimit:4;stroke-dasharray:none;stroke-dashoffset:0;stroke-opacity:1;paint-order:stroke markers fill;color-rendering:auto;image-rendering:auto;shape-rendering:auto;text-rendering:auto;enable-background:accumulate;stop-color:#000000"
         d="m 124.09941,42.053249 -15.37219,54.170854 h 26.61801 l 9.81284,-34.579802 c 2.2528,-2.063967 6.70789,-5.683155 10.3482,-5.753655 5.0933,-0.09864 7.09788,1.716135 4.92167,9.532752 -2.17621,7.816617 -8.75813,30.800705 -8.75813,30.800705 h 26.61854 c 0,0 6.18395,-22.191705 9.62266,-34.149338 3.01287,-2.734524 7.34414,-6.125329 10.37973,-6.184119 5.0933,-0.09864 7.09788,1.716135 4.92167,9.532752 -2.17621,7.816617 -8.75813,30.800705 -8.75813,30.800705 h 26.61802 c 0,0 5.88532,-21.244497 9.20409,-32.71945 3.31877,-11.474953 -1.41426,-21.328836 -14.87403,-21.451404 -11.07242,-0.10083 -22.97345,6.294983 -26.85366,8.570534 -1.88163,-5.430432 -7.57327,-8.488804 -15.93081,-8.570534 -12.53374,-0.122571 -23.86934,6.937561 -23.86934,6.937561 0,0 -4.00242,-4.685549 -11.57346,-5.868377 -7.57103,-1.182825 -13.07568,-1.069184 -13.07568,-1.069184 z"
         id="path1242" />
      <path
         id="path1254"
         style="color:#000000;font-style:normal;font-variant:normal;font-weight:normal;font-stretch:normal;font-size:medium;line-height:normal;font-family:sans-serif;font-variant-ligatures:normal;font-variant-position:normal;font-variant-caps:normal;font-variant-numeric:normal;font-variant-alternates:normal;font-variant-east-asian:normal;font-feature-settings:normal;font-variation-settings:normal;text-indent:0;text-align:start;text-decoration:none;text-decoration-line:none;text-decoration-style:solid;text-decoration-color:#000000;letter-spacing:normal;word-spacing:normal;text-transform:none;writing-mode:lr-tb;direction:ltr;text-orientation:mixed;dominant-baseline:auto;baseline-shift:baseline;text-anchor:start;white-space:normal;shape-padding:0;shape-margin:0;inline-size:0;clip-rule:nonzero;display:inline;overflow:visible;visibility:visible;isolation:auto;mix-blend-mode:normal;color-interpolation:sRGB;color-interpolation-filters:linearRGB;solid-color:#000000;solid-opacity:1;vector-effect:none;fill:url(#linearGradient937);fill-opacity:1;fill-rule:nonzero;stroke:none;stroke-width:5.73617;stroke-linecap:square;stroke-linejoin:round;stroke-miterlimit:4;stroke-dasharray:none;stroke-dashoffset:0;stroke-opacity:1;paint-order:stroke markers fill;color-rendering:auto;image-rendering:auto;shape-rendering:auto;text-rendering:auto;enable-background:accumulate;stop-color:#000000"
         d="m 170.44748,5.8905967 c 1.46416,2.0395142 2.33164,4.5315283 2.33164,7.2150633 0,1.258058 -0.19139,2.474023 -0.54415,3.621485 40.93815,-4.744175 74.52845,0.763461 80.27831,13.091707 7.3549,15.769635 -2.11795,28.842042 -11.3497,41.407809 13.2176,-10.225554 20.89648,-29.155769 18.88774,-41.212988 -2.78926,-16.742148 -27.86899,-25.8080364 -62.74036,-25.7715546 -8.43754,0.00883 -17.45138,0.5527982 -26.86348,1.6484783 z M 150.14433,20.186365 c -1.4064,-2.014159 -2.23604,-4.455825 -2.23604,-7.080705 0,-1.314008 0.20922,-2.581867 0.59273,-3.7739297 -2.60466,0.5106795 -5.22687,1.0588977 -7.86516,1.6484787 -38.82384,8.675995 -77.572582,25.701213 -98.818773,43.554966 l 1.573546,-5.544365 c 0,0 -4.002974,-4.685549 -11.57397,-5.868377 -7.571,-1.182825 -13.075688,-1.069184 -13.075688,-1.069184 L 3.3687867,96.224103 H 29.986802 l 4.055049,-14.288535 c 2.688854,-9.474512 47.067217,-45.032553 102.638179,-58.764372 4.51357,-1.115321 9.00885,-2.107659 13.4643,-2.984831 z" />
      <g
         id="rect957"
         style="stroke:#000000;stroke-width:5.73617;stroke-linecap:square;stroke-linejoin:round;stroke-miterlimit:4;stroke-dasharray:none;stroke-opacity:1;paint-order:stroke markers fill">
        <path
           style="color:#000000;font-style:normal;font-variant:normal;font-weight:normal;font-stretch:normal;font-size:medium;line-height:normal;font-family:sans-serif;font-variant-ligatures:normal;font-variant-position:normal;font-variant-caps:normal;font-variant-numeric:normal;font-variant-alternates:normal;font-variant-east-asian:normal;font-feature-settings:normal;font-variation-settings:normal;text-indent:0;text-align:start;text-decoration:none;text-decoration-line:none;text-decoration-style:solid;text-decoration-color:#000000;letter-spacing:normal;word-spacing:normal;text-transform:none;writing-mode:lr-tb;direction:ltr;text-orientation:mixed;dominant-baseline:auto;baseline-shift:baseline;text-anchor:start;white-space:normal;shape-padding:0;shape-margin:0;inline-size:0;clip-rule:nonzero;display:inline;overflow:visible;visibility:visible;isolation:auto;mix-blend-mode:normal;color-interpolation:sRGB;color-interpolation-filters:linearRGB;solid-color:#000000;solid-opacity:1;vector-effect:none;fill:#2c2c81;fill-opacity:1;fill-rule:nonzero;stroke:none;stroke-width:5.73617;stroke-linecap:square;stroke-linejoin:round;stroke-miterlimit:4;stroke-dasharray:none;stroke-dashoffset:0;stroke-opacity:1;paint-order:stroke markers fill;color-rendering:auto;image-rendering:auto;shape-rendering:auto;text-rendering:auto;enable-background:accumulate;stop-color:#000000;stop-opacity:1"
           d="m 97.954748,42.066685 c -11.701762,3.309935 -22.474664,8.727038 -31.05702,15.107605 0,0 -0.94874,4.026485 -3.593063,13.342337 h -6.72052 l -8.447548,8.58914 h 12.676746 c -3.895162,13.039117 -7.865806,24.444153 -4.838981,32.473473 3.198548,8.48485 11.854964,12.73253 25.409304,12.70827 13.55434,-0.0243 19.555624,-4.69296 26.076444,-10.36061 6.52082,-5.66766 10.835,-15.188739 10.835,-15.188739 h -10.2924 c 0,0 -9.209159,14.920649 -20.848339,14.993399 -11.381743,0.0711 -4.648263,-16.74174 0.458372,-34.625793 h 15.955097 l 8.44807,-8.58914 H 90.020865 c 4.215101,-15.07721 7.933883,-28.449942 7.933883,-28.449942 z"
           id="path1260" />
      </g>
      <g
         id="path943"
         style="stroke:#000000;stroke-width:5.73617;stroke-linecap:square;stroke-linejoin:round;stroke-miterlimit:4;stroke-dasharray:none;stroke-opacity:1;paint-order:stroke markers fill">
        <path
           style="color:#000000;font-style:normal;font-variant:normal;font-weight:normal;font-stretch:normal;font-size:medium;line-height:normal;font-family:sans-serif;font-variant-ligatures:normal;font-variant-position:normal;font-variant-caps:normal;font-variant-numeric:normal;font-variant-alternates:normal;font-variant-east-asian:normal;font-feature-settings:normal;font-variation-settings:normal;text-indent:0;text-align:start;text-decoration:none;text-decoration-line:none;text-decoration-style:solid;text-decoration-color:#000000;letter-spacing:normal;word-spacing:normal;text-transform:none;writing-mode:lr-tb;direction:ltr;text-orientation:mixed;dominant-baseline:auto;baseline-shift:baseline;text-anchor:start;white-space:normal;shape-padding:0;shape-margin:0;inline-size:0;clip-rule:nonzero;display:inline;overflow:visible;visibility:visible;isolation:auto;mix-blend-mode:normal;color-interpolation:sRGB;color-interpolation-filters:linearRGB;solid-color:#000000;solid-opacity:1;vector-effect:none;fill:url(#radialGradient920);fill-opacity:1;fill-rule:nonzero;stroke:none;stroke-width:5.73617;stroke-linecap:square;stroke-linejoin:round;stroke-miterlimit:4;stroke-dasharray:none;stroke-dashoffset:0;stroke-opacity:1;paint-order:stroke markers fill;color-rendering:auto;image-rendering:auto;shape-rendering:auto;text-rendering:auto;enable-background:accumulate;stop-color:#000000;stop-opacity:1"
           d="m 169.70728,13.105138 c 0,5.171243 -4.19212,9.363363 -9.36336,9.363363 -5.17124,0 -9.36337,-4.19212 -9.36337,-9.363363 0,-5.1712429 4.19213,-9.3633634 9.36337,-9.3633634 5.17124,0 9.36336,4.1921205 9.36336,9.3633634 z"
           id="path1266" />
      </g>
    </g>
  </g>
</svg>
